<?xml version="1.0" encoding="utf-8"?>
<!-- Generator: Adobe Illustrator 23.1.0, SVG Export Plug-In . SVG Version: 6.00 Build 0)  -->
<svg version="1.1" id="Layer_1" xmlns="http://www.w3.org/2000/svg" xmlns:xlink="http://www.w3.org/1999/xlink" x="0px" y="0px"
	 viewBox="0 0 222.2 163.5" style="enable-background:new 0 0 222.2 163.5;" xml:space="preserve">
<style type="text/css">
	.st0{fill:url(#SVGID_1_);}
	.st1{fill:url(#SVGID_2_);}
	.st2{fill:url(#SVGID_3_);}
	.st3{fill:url(#SVGID_4_);}
	.st4{fill:url(#SVGID_5_);}
	.st5{fill:url(#SVGID_6_);}
	.st6{fill:url(#SVGID_7_);}
	.st7{fill:url(#SVGID_8_);}
	.st8{fill:url(#SVGID_9_);}
	.st9{fill:url(#SVGID_10_);}
	.st10{fill:url(#SVGID_11_);}
	.st11{fill:url(#SVGID_12_);}
	.st12{fill:url(#SVGID_13_);}
	.st13{fill:url(#SVGID_14_);}
	.st14{fill:url(#SVGID_15_);}
</style>
<g>
	<g>
		<linearGradient id="SVGID_1_" gradientUnits="userSpaceOnUse" x1="21.5432" y1="109.7746" x2="101.44" y2="109.7746">
			<stop  offset="0.1145" style="stop-color:#12BBDC"/>
			<stop  offset="0.8855" style="stop-color:#6BC28F"/>
		</linearGradient>
		<path class="st0" d="M101.4,77.3c0-3.3-2.6-5.9-5.9-5.9h-0.4c-3,0-5.3,2.4-5.3,5.4l0.1,50.9c0,2.7-0.9,5.4-2.5,7.5v-20
			c0-6.3-1.5-12-4.4-17c-2.9-5-6.8-9-11.8-11.9c-0.1,0-0.1-0.1-0.2-0.1c2.2,2.1,3.6,4.5,4.2,7.3c0.5,2.6-0.1,5.4-1.7,7.7
			c-1,1.5-2.4,2.6-3.9,3.2c-0.7,0.1-1.3-0.1-1.8-0.6c-0.8-0.7-1.1-1.7-0.9-2.7c0.2-0.6,0.4-1.1,0.5-1.7c0-0.3-0.4-0.5-0.5-0.1
			c-0.1,0.6-0.2,1.1-0.6,1.6c-0.3,0.5-0.8,0.8-1.2,1.2c-0.2,0.2-0.2,0.5,0,0.7c2.6,2.6,3.6,6.2,4,9.8c0.4,3.8,0.5,7.8-0.4,11.5
			c-0.1,0.6,0.8,0.9,1,0.3c0.3-1.2,0.5-2.4,0.6-3.6c0.4-1,1.2-1.7,2.2-2.2c0.9-0.1,1.8,0.1,2.6,0.4c0.1,0,0.1,0.1,0.2,0.1
			c0.5,0.2,1.1,0.6,1.5,1c0.1,0.1,0.1,0.1,0.1,0.2c0.1,0.1,0.2,0.3,0.4,0.4c3.3,3.6,3.5,9.2,0.5,13.5c-0.2,0.2-0.4,0.6-0.6,0.8
			c-1.4,1.8-3.2,3.1-5.7,4.2c-1.6,0.7-3.3,1.2-5.5,1.4c-6.2,0.5-12.4-1.5-17.5-5.7c-0.2-0.2-0.5-0.4-0.7-0.6
			c-0.2-0.2-0.4-0.3-0.6-0.5c-1.9-1.8-3.2-3.5-4.5-5.3l0-0.1l-0.9-1.5c-1.7-3.2-2.9-6.4-3.6-10.1l-0.1-0.5c-0.2-1.2-0.4-2.3-0.5-3.5
			c-0.1-1.7-0.1-3.4,0-5c0-0.8,0-1.7,0-2.6c0-0.6,0.1-1.2,0.2-1.8c1-5.9,4-11.2,8.9-15.6c1.5-1.2,2.9-2.2,4.2-3
			c2.3-1.3,4.8-2.1,7.7-2.5c0.4,0,0.7-0.1,1.1-0.1c0.1,0,0.2,0,0.3,0c-1.8-0.3-3.6-0.4-5.5-0.4c-6.2,0-11.8,1.5-16.8,4.4
			c-5,2.9-8.9,6.9-11.8,11.9c-2.9,5-4.4,10.7-4.4,17c0,6.3,1.3,11.9,4,16.9c2.7,5,6.3,8.9,10.9,11.8c4.6,2.9,9.8,4.4,15.7,4.4
			c5.8,0,11-1.5,15.7-4.4c2.8-1.8,5.3-4,7.4-6.5v4.4c0,1.8,0.6,3.2,1.7,4.4c1.2,1.2,2.6,1.7,4.4,1.7c0.6,0,1.1-0.1,1.6-0.2
			c0.3,0,0.7-0.1,1-0.1c10.4,0.5,17.8-11.5,17.5-16.5C101.2,126.9,101.3,91.5,101.4,77.3z"/>
		<linearGradient id="SVGID_2_" gradientUnits="userSpaceOnUse" x1="39.5905" y1="97.142" x2="47.7391" y2="97.142">
			<stop  offset="0.1145" style="stop-color:#12BBDC"/>
			<stop  offset="0.8855" style="stop-color:#6BC28F"/>
		</linearGradient>
		<path class="st1" d="M46.8,89.3c-2.2,1.9-3.8,4.4-4.9,7c-1.2,2.7-1.8,5.6-2.3,8.5c-0.1,0.4,0.6,0.6,0.7,0.2
			c0.6-2.8,1.4-5.5,2.6-8.1c1.1-2.6,2.7-4.9,4.8-6.8C48.1,89.5,47.3,88.8,46.8,89.3z"/>
		<linearGradient id="SVGID_3_" gradientUnits="userSpaceOnUse" x1="48.4202" y1="87.9459" x2="50.1377" y2="87.9459">
			<stop  offset="0.1145" style="stop-color:#12BBDC"/>
			<stop  offset="0.8855" style="stop-color:#6BC28F"/>
		</linearGradient>
		<path class="st2" d="M49.9,87.2C49.9,87.2,49.9,87.2,49.9,87.2c-0.2-0.1-0.3-0.1-0.4-0.1c-0.2,0-0.3,0.1-0.4,0.2
			c-0.2,0.2-0.4,0.4-0.6,0.6c-0.2,0.2,0,0.6,0.2,0.7c0.3,0.1,0.5,0.1,0.7-0.2c0,0,0,0,0,0c0,0,0,0,0-0.1c0,0,0.1-0.1,0.1-0.1
			c0,0,0,0,0.1-0.1c0,0,0.1-0.1,0.1-0.1c0.2-0.1,0.3-0.2,0.4-0.4l0,0c0-0.1,0.1-0.1,0.1-0.2C50.2,87.5,50.1,87.4,49.9,87.2
			C49.9,87.3,49.9,87.2,49.9,87.2z"/>
		<linearGradient id="SVGID_4_" gradientUnits="userSpaceOnUse" x1="39.2935" y1="107.4671" x2="40.3667" y2="107.4671">
			<stop  offset="0.1145" style="stop-color:#12BBDC"/>
			<stop  offset="0.8855" style="stop-color:#6BC28F"/>
		</linearGradient>
		<path class="st3" d="M39.9,106.6c-0.3,0-0.5,0.2-0.5,0.5c0,0.3-0.1,0.6,0,0.9c0.1,0.4,0.6,0.4,0.8,0.1c0.2-0.3,0.2-0.7,0.2-1
			C40.4,106.8,40.1,106.6,39.9,106.6z"/>
		<linearGradient id="SVGID_5_" gradientUnits="userSpaceOnUse" x1="52.7087" y1="137.0116" x2="59.199" y2="137.0116">
			<stop  offset="0.1145" style="stop-color:#12BBDC"/>
			<stop  offset="0.8855" style="stop-color:#6BC28F"/>
		</linearGradient>
		<path class="st4" d="M57.7,137.4c-0.5-0.2-1-0.4-1.5-0.6c-0.9-0.4-1.9-0.8-2.8-1.3c-0.5-0.3-1,0.5-0.5,0.8c0.9,0.5,1.9,1,2.9,1.4
			c0.9,0.4,2,0.8,3,0.9c0.3,0,0.4-0.4,0.2-0.6C58.6,137.7,58.2,137.6,57.7,137.4z"/>
		<linearGradient id="SVGID_6_" gradientUnits="userSpaceOnUse" x1="50.486" y1="134.8035" x2="51.9672" y2="134.8035">
			<stop  offset="0.1145" style="stop-color:#12BBDC"/>
			<stop  offset="0.8855" style="stop-color:#6BC28F"/>
		</linearGradient>
		<path class="st5" d="M51.3,134.2c-0.2-0.2-0.5-0.2-0.7,0c-0.2,0.2-0.2,0.5,0,0.7c0.3,0.2,0.5,0.5,0.9,0.6c0.3,0.1,0.6-0.3,0.4-0.6
			C51.8,134.6,51.5,134.4,51.3,134.2z"/>
		<linearGradient id="SVGID_7_" gradientUnits="userSpaceOnUse" x1="60.0125" y1="84.161" x2="71.0869" y2="84.161">
			<stop  offset="0.1145" style="stop-color:#12BBDC"/>
			<stop  offset="0.8855" style="stop-color:#6BC28F"/>
		</linearGradient>
		<path class="st6" d="M70.7,85.7L70.7,85.7c-0.1-0.1-0.2-0.1-0.3-0.2c-0.1-0.1-0.3-0.2-0.4-0.3c-2.9-2.1-6.2-3-9.9-2.9
			c4,0.6,7.7,1.9,11.1,3.8C70.9,86,70.8,85.8,70.7,85.7z"/>
		<linearGradient id="SVGID_8_" gradientUnits="userSpaceOnUse" x1="174.6934" y1="52.0244" x2="182.8419" y2="52.0244">
			<stop  offset="0.1145" style="stop-color:#12BBDC"/>
			<stop  offset="0.8855" style="stop-color:#6BC28F"/>
		</linearGradient>
		<path class="st7" d="M179.6,51.7c1.2,2.6,2,5.3,2.6,8.1c0.1,0.4,0.7,0.2,0.7-0.2c-0.6-2.9-1.2-5.8-2.3-8.5c-1.1-2.6-2.8-5.1-4.9-7
			c-0.5-0.4-1.2,0.3-0.7,0.7C177,46.7,178.5,49.1,179.6,51.7z"/>
		<linearGradient id="SVGID_9_" gradientUnits="userSpaceOnUse" x1="172.2947" y1="42.8283" x2="174.0123" y2="42.8283">
			<stop  offset="0.1145" style="stop-color:#12BBDC"/>
			<stop  offset="0.8855" style="stop-color:#6BC28F"/>
		</linearGradient>
		<path class="st8" d="M172.4,42.7c0.1,0.2,0.2,0.3,0.4,0.4c0,0,0.1,0,0.1,0.1c0,0,0.1,0.1,0.1,0.1c0,0,0.1,0.1,0.1,0.1
			c0,0,0,0,0,0.1c0,0,0,0,0,0c0.2,0.2,0.4,0.3,0.7,0.2c0.2-0.1,0.3-0.5,0.2-0.7c-0.2-0.2-0.4-0.4-0.6-0.6c-0.1-0.1-0.3-0.2-0.4-0.2
			c-0.1,0-0.2,0-0.3,0c0,0-0.1,0-0.1,0c0,0-0.1,0-0.1,0c-0.1,0.1-0.2,0.3-0.2,0.4C172.3,42.6,172.3,42.7,172.4,42.7L172.4,42.7z"/>
		<linearGradient id="SVGID_10_" gradientUnits="userSpaceOnUse" x1="182.0657" y1="62.3495" x2="183.139" y2="62.3495">
			<stop  offset="0.1145" style="stop-color:#12BBDC"/>
			<stop  offset="0.8855" style="stop-color:#6BC28F"/>
		</linearGradient>
		<path class="st9" d="M182.1,62c0,0.4,0.1,0.7,0.2,1c0.2,0.3,0.7,0.3,0.8-0.1c0.1-0.3,0-0.6,0-0.9c0-0.3-0.2-0.5-0.5-0.5
			C182.3,61.5,182,61.7,182.1,62z"/>
		<linearGradient id="SVGID_11_" gradientUnits="userSpaceOnUse" x1="105.1453" y1="85.8608" x2="200.8892" y2="85.8608">
			<stop  offset="0.1145" style="stop-color:#12BBDC"/>
			<stop  offset="0.8855" style="stop-color:#6BC28F"/>
		</linearGradient>
		<path class="st10" d="M196.5,53c-2.9-5-6.9-9-11.8-11.9c-5-2.9-10.6-4.4-16.8-4.4c-1.9,0-3.7,0.2-5.5,0.4c0.1,0,0.2,0,0.3,0
			c0.3,0,0.7,0,1.1,0.1c2.9,0.3,5.4,1.1,7.7,2.5c1.2,0.8,2.7,1.8,4.2,3c4.9,4.4,7.9,9.6,8.9,15.6c0.1,0.6,0.2,1.2,0.2,1.8
			c0,0.9,0,1.7,0,2.6c0,1.7,0.1,3.4,0,5c-0.1,1.2-0.3,2.3-0.5,3.5l-0.1,0.5c-0.7,3.7-1.9,6.9-3.6,10.1l-0.9,1.5l0,0.1
			c-1.2,1.8-2.6,3.5-4.5,5.3c-0.2,0.2-0.4,0.4-0.6,0.5c-0.2,0.2-0.5,0.4-0.7,0.6c-5,4.2-11.2,6.2-17.5,5.7c-2.2-0.2-3.9-0.7-5.5-1.4
			c-2.5-1.1-4.3-2.5-5.7-4.2c-0.1-0.2-0.3-0.6-0.6-0.8c-3.1-4.2-2.9-9.9,0.5-13.5c0.2-0.1,0.3-0.3,0.4-0.4c0-0.1,0.1-0.1,0.1-0.2
			c0.5-0.4,1-0.7,1.5-1c0.1,0,0.1,0,0.2-0.1c0.9-0.4,1.8-0.5,2.6-0.4c1,0.4,1.8,1.2,2.2,2.2c0.1,1.2,0.3,2.4,0.6,3.6
			c0.1,0.7,1.1,0.4,1-0.3c-0.9-3.8-0.8-7.7-0.4-11.5c0.4-3.6,1.4-7.2,4-9.8c0.2-0.2,0.2-0.5,0-0.7c-0.4-0.4-0.9-0.7-1.2-1.2
			c-0.3-0.5-0.5-1-0.6-1.6c0-0.3-0.5-0.2-0.5,0.1c0.1,0.6,0.3,1.2,0.5,1.7c0.3,1-0.1,2-0.9,2.7c-0.5,0.5-1.2,0.6-1.8,0.6
			c-1.5-0.6-2.9-1.7-3.9-3.2c-1.6-2.3-2.2-5.1-1.7-7.7c0.5-2.8,1.9-5.3,4.2-7.3c-0.1,0-0.1,0.1-0.2,0.1c-4.9,2.9-8.9,6.9-11.8,11.9
			c-2.9,5-4.4,10.7-4.4,17v1c-1.2-0.2-2.5-0.3-4-0.3c-3.9,0-7.4,0.9-10.6,2.7c-2.2,1.2-4,2.7-5.6,4.5V76c0-1.6-0.4-2.8-1.2-3.6
			c-0.8-0.8-2-1.2-3.6-1.2c-1.5,0-2.7,0.4-3.6,1.3c-0.8,0.8-1.3,2-1.3,3.6v54.1c0,1.6,0.4,2.8,1.3,3.6c0.8,0.8,2,1.2,3.6,1.2
			c1.6,0,2.8-0.4,3.6-1.3c0.8-0.8,1.2-2,1.2-3.6V91c0-3,0.9-5.4,2.8-7.3c1.9-1.9,4.5-3.2,7.8-4c2.9-0.6,6.1-0.6,9.6-0.1v17
			c0,1.8,0.6,3.2,1.7,4.4c1.2,1.2,2.6,1.7,4.4,1.7c1.8,0,3.2-0.6,4.4-1.7c1.2-1.2,1.7-2.6,1.7-4.4v-4.4c2.1,2.6,4.6,4.8,7.4,6.5
			c4.6,2.9,9.8,4.4,15.7,4.4c5.8,0,11-1.5,15.7-4.4c4.6-2.9,8.3-6.9,10.9-11.8c2.7-5,4-10.6,4-16.9C200.9,63.7,199.4,58,196.5,53z"
			/>
		<linearGradient id="SVGID_12_" gradientUnits="userSpaceOnUse" x1="163.2335" y1="91.894" x2="169.7237" y2="91.894">
			<stop  offset="0.1145" style="stop-color:#12BBDC"/>
			<stop  offset="0.8855" style="stop-color:#6BC28F"/>
		</linearGradient>
		<path class="st11" d="M163.5,93.5c1-0.1,2.1-0.5,3-0.9c1-0.4,2-0.9,2.9-1.4c0.5-0.3,0.1-1.1-0.5-0.8c-0.9,0.5-1.9,0.9-2.8,1.3
			c-0.5,0.2-1,0.4-1.5,0.6c-0.4,0.2-0.9,0.3-1.3,0.6C163.1,93,163.2,93.5,163.5,93.5z"/>
		<linearGradient id="SVGID_13_" gradientUnits="userSpaceOnUse" x1="170.4652" y1="89.6859" x2="171.9465" y2="89.6859">
			<stop  offset="0.1145" style="stop-color:#12BBDC"/>
			<stop  offset="0.8855" style="stop-color:#6BC28F"/>
		</linearGradient>
		<path class="st12" d="M170.9,90.4c0.3-0.1,0.6-0.4,0.9-0.6c0.2-0.2,0.2-0.5,0-0.7c-0.2-0.2-0.5-0.2-0.7,0
			c-0.2,0.2-0.5,0.4-0.6,0.7C170.4,90.1,170.6,90.5,170.9,90.4z"/>
		<linearGradient id="SVGID_14_" gradientUnits="userSpaceOnUse" x1="151.3455" y1="39.0434" x2="162.4201" y2="39.0434">
			<stop  offset="0.1145" style="stop-color:#12BBDC"/>
			<stop  offset="0.8855" style="stop-color:#6BC28F"/>
		</linearGradient>
		<path class="st13" d="M152.5,40c-0.1,0.1-0.3,0.2-0.4,0.3c-0.1,0.1-0.2,0.1-0.3,0.2l0,0c-0.1,0.1-0.3,0.3-0.4,0.4
			c3.4-2,7.1-3.2,11.1-3.8C158.7,37,155.4,38,152.5,40z"/>
	</g>
	<linearGradient id="SVGID_15_" gradientUnits="userSpaceOnUse" x1="90.595" y1="62.6324" x2="101.8892" y2="62.6324">
		<stop  offset="0.1145" style="stop-color:#12BBDC"/>
		<stop  offset="0.8855" style="stop-color:#6BC28F"/>
	</linearGradient>
	<circle class="st14" cx="96.2" cy="62.6" r="5.6"/>
</g>
</svg>
