<?xml version="1.0" encoding="utf-8"?>
<!-- Generator: Adobe Illustrator 23.1.0, SVG Export Plug-In . SVG Version: 6.00 Build 0)  -->
<svg version="1.1" id="Layer_1" xmlns="http://www.w3.org/2000/svg" xmlns:xlink="http://www.w3.org/1999/xlink" x="0px" y="0px"
	 viewBox="0 0 117.7 111.4" style="enable-background:new 0 0 117.7 111.4;" xml:space="preserve">
<style type="text/css">
	.st0{fill:url(#SVGID_1_);}
	.st1{fill:url(#SVGID_2_);}
	.st2{fill:url(#SVGID_3_);}
</style>
<title>70 Basic icons by Xicons.co</title>
<linearGradient id="SVGID_1_" gradientUnits="userSpaceOnUse" x1="-462.771" y1="325.726" x2="-460.0804" y2="325.726" gradientTransform="matrix(38 0 0 -4 17593.0586 1327.5883)">
	<stop  offset="0.2601" style="stop-color:#0bb9e1"/>
	<stop  offset="0.7454" style="stop-color:#0bb9e1"/>
</linearGradient>
<path class="st0" d="M104.6,30.1H13.1c-3,0-5.4-2.4-5.4-5.4s2.4-5.4,5.4-5.4h91.5c3,0,5.4,2.4,5.4,5.4S107.6,30.1,104.6,30.1z"/>
<linearGradient id="SVGID_2_" gradientUnits="userSpaceOnUse" x1="-462.7162" y1="320.6544" x2="-460.1477" y2="320.6544" gradientTransform="matrix(38 0 0 -4 17593.0586 1339.5883)">
	<stop  offset="0.2601" style="stop-color:#0bb9e1"/>
	<stop  offset="0.7454" style="stop-color:#0bb9e1"/>
</linearGradient>
<path class="st1" d="M104.6,62.4H13.1c-3,0-5.4-2.4-5.4-5.4c0-3,2.4-5.4,5.4-5.4h91.5c3,0,5.4,2.4,5.4,5.4
	C110,59.9,107.6,62.4,104.6,62.4z"/>
<linearGradient id="SVGID_3_" gradientUnits="userSpaceOnUse" x1="-462.7161" y1="315.5829" x2="-460.1384" y2="315.5829" gradientTransform="matrix(38 0 0 -4 17593.0586 1351.5883)">
	<stop  offset="0.2601" style="stop-color:#0bb9e1"/>
	<stop  offset="0.7454" style="stop-color:#0bb9e1"/>
</linearGradient>
<path class="st2" d="M104.6,94.6H13.1c-3,0-5.4-2.4-5.4-5.4s2.4-5.4,5.4-5.4h91.5c3,0,5.4,2.4,5.4,5.4S107.6,94.6,104.6,94.6z"/>
</svg>
